<svg width="128" height="128" viewBox="0 0 128 128" fill="none" xmlns="http://www.w3.org/2000/svg">
<rect width="128" height="128" rx="16" fill="#2D2526"/>
<path d="M90.9824 36.1538C117.96 30.7341 128.66 67.5381 94.6583 71.2304C74.4409 73.4258 44.1147 72.1535 40.4388 90.6149C36.7629 109.076 53.3045 127.538 74.4409 121.076C90.2572 116.241 94.593 99.8862 89.6231 88.2042L90.2572 87.4201C96.5461 100.06 93.7394 118.492 75.3599 122.922C52.3855 128.461 33.087 111.846 37.6819 91.538C42.2768 71.2304 78.1168 69.3843 92.8204 68.4612C123.147 66.5574 114.251 36.5858 90.9824 38.923C83.2637 39.6983 82.0176 39.824 79.0358 39.846C79.5841 50.8448 81.6971 67.1431 79 67.5C76.3029 67.8569 74.1408 68.1362 72.5 68.5C77.0949 54.654 76.2788 51.846 75.3599 39.846C67.044 39.4621 62.4942 36.1538 60.6563 26C63.8754 34.4071 69.8009 37.4377 78.1168 37.8216C81.6707 37.9857 86.3876 37.0768 90.9824 36.1538Z" fill="#F19A3E" stroke="#F19A3E" stroke-width="0.4" stroke-linecap="round" stroke-linejoin="round"/>
<path d="M66.5714 112C61 105.583 52.3333 98.25 48 95.5C49.8571 95.5 58.2143 98.25 66.5714 104.667C74.9286 96.4167 82.3571 89.0833 100 79C86.0714 90.9167 69.3571 107.417 66.5714 112Z" fill="#83ED80" stroke="#83ED80" stroke-width="0.4" stroke-linecap="round" stroke-linejoin="round"/>
<path d="M78.5 35.5C78.5 4.23215 25.8032 30.5893 17.6067 3C33.9997 25.6504 80.4464 2.81247 85 35C82.2678 35.9196 79.5 36 78.5 35.5Z" fill="#F19A3E"/>
<path d="M73.1606 50.8215C73.1606 50.8215 74.0714 49.9018 73.1606 45.3036C67.6963 50.8215 53.1248 55.4197 53.1248 55.4197C54.0355 37.9465 50.3926 20.4732 50.3926 20.4732C49.4819 19.5536 44.0176 19.5536 44.0176 19.5536C44.0176 19.5536 48.5712 38.8661 45.839 58.1786C28.5354 64.6161 2.12448 71.0536 15.7853 106C15.7853 106 16.696 100.482 19.4282 97.7232C4.85664 60.9375 54.9462 60.0179 73.1606 50.8215Z" fill="#F19A3E"/>
<path d="M78.5 35.5C78.5 4.23215 25.8032 30.5893 17.6067 3C33.9997 25.6504 80.4464 2.81247 85 35C82.2678 35.9196 79.5 36 78.5 35.5Z" stroke="#F19A3E" stroke-width="0.4" stroke-linecap="round" stroke-linejoin="round"/>
<path d="M73.1606 50.8215C73.1606 50.8215 74.0714 49.9018 73.1606 45.3036C67.6963 50.8215 53.1248 55.4197 53.1248 55.4197C54.0355 37.9465 50.3926 20.4732 50.3926 20.4732C49.4819 19.5536 44.0176 19.5536 44.0176 19.5536C44.0176 19.5536 48.5712 38.8661 45.839 58.1786C28.5354 64.6161 2.12448 71.0536 15.7853 106C15.7853 106 16.696 100.482 19.4282 97.7232C4.85664 60.9375 54.9462 60.0179 73.1606 50.8215Z" stroke="#F19A3E" stroke-width="0.4" stroke-linecap="round" stroke-linejoin="round"/>
</svg>
